<svg aria-hidden="true" style="position: absolute; width: 0; height: 0; overflow: hidden;" version="1.1" xmlns="http://www.w3.org/2000/svg" xmlns:xlink="http://www.w3.org/1999/xlink">
<defs>
<symbol id="icon-stroke" viewBox="0 0 33 32">
<path stroke-linejoin="round" stroke-linecap="round" stroke-miterlimit="4" stroke-width="2" d="M10.155 26.427c0.563 0 1.020 0.457 1.020 1.020s-0.457 1.019-1.020 1.019c-0.563 0-1.019-0.456-1.019-1.019s0.456-1.020 1.019-1.020z"></path>
<path stroke-linejoin="round" stroke-linecap="round" stroke-miterlimit="4" stroke-width="2" d="M25.159 26.427c0.563 0 1.020 0.457 1.020 1.020s-0.457 1.019-1.020 1.019c-0.563 0-1.020-0.456-1.020-1.019s0.457-1.020 1.020-1.020z"></path>
<path stroke-linejoin="round" stroke-linecap="round" stroke-miterlimit="4" stroke-width="2" d="M3.926 4.333l2.773 0.48 1.284 15.297c0.104 1.247 1.145 2.204 2.396 2.204h14.549c1.195 0 2.208-0.877 2.38-2.061l1.265-8.744c0.156-1.079-0.68-2.044-1.769-2.044h-19.66"></path>
<path stroke-linejoin="round" stroke-linecap="round" stroke-miterlimit="4" stroke-width="2" d="M19.093 14.396h3.697"></path>
</symbol>
<symbol id="icon-stroke1" viewBox="0 0 33 32">
<path stroke-linejoin="round" stroke-linecap="round" stroke-miterlimit="4" stroke-width="2" d="M10.155 26.427c0.563 0 1.020 0.457 1.020 1.020s-0.457 1.019-1.020 1.019c-0.563 0-1.019-0.456-1.019-1.019s0.456-1.020 1.019-1.020z"></path>
<path stroke-linejoin="round" stroke-linecap="round" stroke-miterlimit="4" stroke-width="2" d="M25.159 26.427c0.563 0 1.020 0.457 1.020 1.020s-0.457 1.019-1.020 1.019c-0.563 0-1.020-0.456-1.020-1.019s0.457-1.020 1.020-1.020z"></path>
<path stroke-linejoin="round" stroke-linecap="round" stroke-miterlimit="4" stroke-width="2" d="M3.926 4.333l2.773 0.48 1.284 15.297c0.104 1.247 1.145 2.204 2.396 2.204h14.549c1.195 0 2.208-0.877 2.38-2.061l1.265-8.744c0.156-1.079-0.68-2.044-1.769-2.044h-19.66"></path>
<path stroke-linejoin="round" stroke-linecap="round" stroke-miterlimit="4" stroke-width="2" d="M19.093 14.396h3.697"></path>
</symbol>
<symbol id="icon-apple-brand" viewBox="0 0 27 32">
<path fill="#fff" style="fill: var(--color1, #fff)" d="M21.686 16.851c-0.034-3.685 3.099-5.478 3.243-5.562-1.776-2.518-4.526-2.864-5.491-2.891-2.31-0.235-4.552 1.347-5.728 1.347-1.2 0-3.013-1.323-4.966-1.285-2.512 0.038-4.864 1.454-6.154 3.654-2.661 4.485-0.677 11.077 1.872 14.702 1.277 1.776 2.768 3.758 4.718 3.688 1.907-0.075 2.621-1.184 4.923-1.184 2.283 0 2.952 1.184 4.941 1.139 2.048-0.032 3.338-1.782 4.57-3.574 1.472-2.035 2.064-4.040 2.088-4.144-0.048-0.016-3.978-1.475-4.016-5.891zM17.928 6.014c1.027-1.25 1.728-2.95 1.534-4.675-1.486 0.064-3.344 1-4.413 2.222-0.947 1.077-1.792 2.842-1.574 4.502 1.669 0.122 3.382-0.819 4.453-2.050z"></path>
</symbol>
<symbol id="icon-arrow-down" viewBox="0 0 14 32">
<path fill="#09a66d" style="fill: var(--color2, #09a66d)" d="M6.334 31.624c0.17 0.171 0.406 0.276 0.666 0.276s0.496-0.105 0.666-0.276v0l5.99-5.989c0.17-0.17 0.276-0.406 0.276-0.666 0-0.52-0.422-0.942-0.942-0.942-0.26 0-0.495 0.105-0.666 0.276l-5.323 5.325-5.325-5.325c-0.17-0.17-0.406-0.276-0.666-0.276-0.52 0-0.942 0.422-0.942 0.942 0 0.26 0.105 0.495 0.276 0.666v0l5.991 5.989zM6.058 0.84v30.118h1.882v-30.118h-1.882z"></path>
</symbol>
<symbol id="icon-arrow-left-small" viewBox="0 0 20 32">
<path fill="#ccc" style="fill: var(--color3, #ccc)" d="M6.821 15.246l11.733 11.733-3.351 3.351-15.086-15.084 15.086-15.084 3.351 3.351-11.733 11.733z"></path>
</symbol>
<symbol id="icon-arrow-right" viewBox="0 0 66 32">
<path fill="#fff" style="fill: var(--color1, #fff)" d="M65.414 17.352c0.362-0.362 0.586-0.862 0.586-1.414s-0.224-1.052-0.586-1.414l-12.728-12.728c-0.364-0.377-0.874-0.611-1.439-0.611-1.105 0-2 0.895-2 2 0 0.565 0.234 1.074 0.61 1.438l0.001 0.001 11.314 11.314-11.314 11.314c-0.347 0.359-0.561 0.849-0.561 1.389 0 1.105 0.895 2 2 2 0.54 0 1.030-0.214 1.39-0.562l-0.001 0.001 12.728-12.728zM0 17.938h64v-4h-64v4z"></path>
</symbol>
<symbol id="icon-arrow-right-small" viewBox="0 0 21 32">
<path fill="#fff" style="fill: var(--color1, #fff)" d="M13.081 15.246l-11.733-11.733 3.353-3.351 15.084 15.084-15.084 15.084-3.353-3.351 11.733-11.733z"></path>
</symbol>
<symbol id="icon-clock" viewBox="0 0 42 32">
<path fill="#09a66d" style="fill: var(--color2, #09a66d)" d="M3.62 7.794h6.379c0.007 0 0.016 0.001 0.025 0.001 0.334 0 0.605-0.271 0.605-0.605s-0.271-0.605-0.605-0.605c-0.009 0-0.018 0-0.026 0.001l0.001-0h-6.379c-0.007-0-0.016-0.001-0.025-0.001-0.334 0-0.605 0.271-0.605 0.605s0.271 0.605 0.605 0.605c0.009 0 0.018-0 0.026-0.001l-0.001 0zM9.781 10.706h-2.521c-0.334 0-0.605 0.271-0.605 0.605s0.271 0.605 0.605 0.605h2.521c0.334 0 0.605-0.271 0.605-0.605s-0.271-0.605-0.605-0.605v0zM1.090 14.901h6.17c0.334 0 0.605-0.271 0.605-0.605s-0.271-0.605-0.605-0.605h-6.17c-0.334 0-0.605 0.271-0.605 0.605s0.271 0.605 0.605 0.605v0zM10.603 25.623c0-0.334-0.271-0.605-0.605-0.605v0h-6.379c-0.334 0-0.605 0.271-0.605 0.605s0.271 0.605 0.605 0.605h6.379c0.334 0 0.605-0.271 0.605-0.605v0zM9.781 20.897h-2.521c-0.334 0-0.605 0.271-0.605 0.605s0.271 0.605 0.605 0.605h2.521c0.334 0 0.605-0.271 0.605-0.605s-0.271-0.605-0.605-0.605v0zM7.866 18.517c0 0 0 0 0 0 0-0.334-0.271-0.605-0.605-0.605-0 0-0.001 0-0.001 0h-6.17c-0.334 0-0.605 0.271-0.605 0.605s0.271 0.605 0.605 0.605h6.17c0.334 0 0.605-0.271 0.605-0.605v0zM26.253 9.134c0.334 0 0.605-0.271 0.605-0.605v-0.923c0-0.334-0.271-0.605-0.605-0.605s-0.605 0.271-0.605 0.605v0 0.923c0 0.334 0.27 0.605 0.605 0.605zM32.903 9.756c-0.109-0.109-0.261-0.177-0.427-0.177s-0.318 0.068-0.427 0.177v0l-0.653 0.653c-0.109 0.109-0.177 0.261-0.177 0.427 0 0.334 0.271 0.605 0.605 0.605 0.167 0 0.319-0.068 0.428-0.178v0l0.651-0.652c0.11-0.109 0.177-0.261 0.177-0.428s-0.068-0.318-0.177-0.428v0zM34.13 15.801c-0.334 0-0.605 0.271-0.605 0.605s0.271 0.605 0.605 0.605h0.923c0.007 0 0.016 0.001 0.025 0.001 0.334 0 0.605-0.271 0.605-0.605s-0.271-0.605-0.605-0.605c-0.009 0-0.018 0-0.026 0.001l0.001-0h-0.923zM32.251 21.548c-0.108-0.104-0.256-0.168-0.418-0.168-0.334 0-0.605 0.271-0.605 0.605 0 0.162 0.064 0.309 0.167 0.418l-0-0 0.653 0.653c0.108 0.103 0.255 0.167 0.417 0.167 0.334 0 0.605-0.271 0.605-0.605 0-0.162-0.064-0.309-0.168-0.418l-0.652-0.652zM25.649 24.283v0.923c0 0.334 0.271 0.605 0.605 0.605s0.605-0.271 0.605-0.605v0-0.923c0-0.334-0.271-0.605-0.605-0.605s-0.605 0.271-0.605 0.605v0zM20.256 21.548l-0.652 0.652c-0.104 0.108-0.168 0.256-0.168 0.418 0 0.334 0.271 0.605 0.605 0.605 0.162 0 0.309-0.064 0.418-0.167l-0 0 0.653-0.653c0.103-0.108 0.167-0.255 0.167-0.417 0-0.334-0.271-0.605-0.605-0.605-0.162 0-0.309 0.064-0.418 0.168l0-0zM17.453 15.801c-0.334 0-0.605 0.271-0.605 0.605s0.271 0.605 0.605 0.605h0.923c0.323-0.014 0.58-0.279 0.58-0.604s-0.257-0.591-0.579-0.604l-0.001-0h-0.923zM21.112 10.409l-0.653-0.653c-0.108-0.103-0.255-0.167-0.417-0.167-0.334 0-0.605 0.271-0.605 0.605 0 0.162 0.064 0.309 0.168 0.418l0.652 0.652c0.11 0.11 0.261 0.177 0.428 0.177 0.334 0 0.605-0.271 0.605-0.605 0-0.167-0.068-0.318-0.177-0.428v0zM29.506 16.406c0-0.334-0.271-0.605-0.605-0.605v0h-2.044v-4.49c0-0.007 0.001-0.016 0.001-0.025 0-0.334-0.271-0.605-0.605-0.605s-0.605 0.271-0.605 0.605c0 0.009 0 0.018 0.001 0.026l-0-0.001v5.095c0 0.334 0.27 0.605 0.605 0.605h2.648c0 0 0 0 0 0 0.334 0 0.604-0.27 0.605-0.604v-0z"></path>
<path fill="#09a66d" style="fill: var(--color2, #09a66d)" d="M37.722 16.307c0.318-0.020 0.569-0.282 0.569-0.604 0-0.013-0-0.025-0.001-0.038l0 0.002c-0.385-6.349-5.672-11.321-12.036-11.321-6.65 0-12.059 5.409-12.059 12.059s5.409 12.060 12.059 12.060c5.956 0 11.040-4.365 11.925-10.254 0.004-0.027 0.007-0.058 0.007-0.090 0-0.334-0.271-0.605-0.605-0.605-0.303 0-0.553 0.222-0.598 0.512l-0 0.003c-0.794 5.291-5.363 9.224-10.727 9.224-5.983 0-10.849-4.867-10.849-10.849 0-5.983 4.866-10.849 10.849-10.849 5.726 0 10.482 4.472 10.828 10.182 0.021 0.332 0.307 0.586 0.64 0.567z"></path>
<path fill="#09a66d" style="fill: var(--color2, #09a66d)" d="M26.253 0.885c-2.126 0-4.212 0.441-6.131 1.267h-10.671c-0.334 0-0.605 0.271-0.605 0.605s0.271 0.605 0.605 0.605h8.396c-1.178 0.764-2.197 1.633-3.091 2.616l-0.011 0.013c-0.097 0.107-0.157 0.25-0.157 0.406 0 0.334 0.271 0.605 0.605 0.605 0.178 0 0.337-0.077 0.448-0.198l0-0c2.631-2.894 6.41-4.704 10.611-4.708h0.001c7.891 0 14.311 6.421 14.311 14.311 0 7.892-6.421 14.312-14.312 14.312s-14.312-6.421-14.312-14.312c0-2.763 0.79-5.445 2.283-7.756 0.066-0.095 0.105-0.213 0.105-0.341 0-0.334-0.271-0.605-0.605-0.605-0.217 0-0.408 0.115-0.514 0.287l-0.002 0.003c-1.553 2.371-2.477 5.276-2.477 8.396 0 0.006 0 0.012 0 0.018v-0.001c0 5.466 2.839 10.279 7.121 13.046h-8.401c-0.334 0-0.605 0.271-0.605 0.605s0.271 0.605 0.605 0.605h10.663c1.804 0.8 3.909 1.267 6.123 1.267 0.006 0 0.011 0 0.017 0h-0.001c8.559 0 15.522-6.963 15.522-15.522 0-8.557-6.963-15.521-15.522-15.521z"></path>
</symbol>
<symbol id="icon-facebook" viewBox="0 0 32 32">
<path d="M17.408 11.571v-3.84c0-1.060 0.86-1.92 1.92-1.92v0h1.92v-4.8h-3.84c-3.181 0-5.76 2.579-5.76 5.76v0 4.8h-3.84v4.8h3.84v15.36h5.76v-15.36h3.84l1.92-4.8h-5.76z"></path>
</symbol>
<symbol id="icon-fruits" viewBox="0 0 32 32">
<path fill="#09a66d" style="fill: var(--color2, #09a66d)" d="M22.903 9.6h1.547c1.287 0 2.365-0.917 2.613-2.133h-1.547c-1.287 0-2.365 0.917-2.613 2.133zM10.667 4.8c0.053 0 0.105 0.006 0.157 0.009l0.374-3.744c0.002-0.315-0.214-0.531-0.48-0.531h-0.101c-0.267 0-0.483 0.216-0.483 0.483v0l0.378 3.791c0.052-0.001 0.103-0.007 0.156-0.007zM6.4 16c0-0.181 0.019-0.359 0.048-0.533h-1.115v0.365c0.4 0.191 0.761 0.448 1.067 0.761v-0.592zM5.968 2.963l1.824 2.686c0.144-0.092 0.291-0.177 0.444-0.256l-1.098-3.017c-0.081-0.231-0.298-0.394-0.553-0.394-0.096 0-0.187 0.023-0.267 0.064l0.003-0.002-0.133 0.066c-0.193 0.098-0.323 0.295-0.323 0.523 0 0.123 0.038 0.238 0.104 0.332l-0.001-0.002zM8.204 14.4h5.94l0.7-3.358c0.060-0.286 0.090-0.579 0.090-0.87 0-2.39-1.914-4.305-4.267-4.305-2.352 0-4.267 1.915-4.267 4.267 0 0.331 0.031 0.623 0.090 0.909l0.617 2.958c0.59-0.734 1.487-1.2 2.494-1.2h0v1.067c-0.535 0-1.021 0.206-1.396 0.533zM12.267 8h1.067v1.067h-1.067v-1.067zM12.267 10.133h1.067v1.067h-1.067v-1.067zM12.267 12.267h1.067v1.067h-1.067v-1.067zM4.8 18.667h1.547c-0.258-1.225-1.33-2.132-2.613-2.133h-1.547c0.249 1.216 1.326 2.133 2.613 2.133zM15.365 2.962c0.063-0.092 0.101-0.206 0.101-0.328 0-0.228-0.13-0.425-0.32-0.522l-0.003-0.002-0.132-0.067c-0.077-0.040-0.167-0.063-0.263-0.063-0.228 0-0.425 0.131-0.52 0.321l-0.002 0.003c-0.010 0.019-0.020 0.042-0.029 0.066l-0.002 0.005-1.095 3.017c0.153 0.079 0.3 0.164 0.443 0.256l1.825-2.686zM14.391 25.067h14.942v-3.2h-15.652c0.471 0.99 0.71 2.079 0.71 3.2zM27.2 22.933h1.067v1.067h-1.067v-1.067zM13.047 29.333h14.686c0.882 0 1.6-0.718 1.6-1.6v-1.6h-15.010c-0.181 1.214-0.633 2.297-1.291 3.223l0.015-0.023zM27.2 27.2h1.067v1.067h-1.067v-1.067zM7.542 15.467c-0.046 0.159-0.073 0.343-0.076 0.532v0.535h24v-1.067h-23.924zM7.467 19.129c0.107-0.026 0.214-0.053 0.313-0.095 0.479-0.21 1.038-0.332 1.626-0.332 1.222 0 2.32 0.529 3.078 1.371l0.003 0.004c0.207 0.229 0.391 0.474 0.566 0.723h16.281v-3.2h-21.867v1.53zM27.2 18.667h1.067v1.067h-1.067v-1.067z"></path>
<path fill="#09a66d" style="fill: var(--color2, #09a66d)" d="M11.694 20.789c-0.571-0.624-1.39-1.015-2.299-1.015-0.432 0-0.843 0.088-1.217 0.247l0.020-0.008c-0.211 0.091-0.457 0.163-0.714 0.204l-0.018 0.002v1.005c0.53-0.197 1.033-0.613 1.223-0.803l0.754 0.755c-0.126 0.126-1.259 1.223-2.511 1.223-1.251 0-2.386-1.099-2.511-1.223l0.754-0.755c0.191 0.19 0.693 0.605 1.223 0.803v-1.491h-1.6c-0.181 0-0.357-0.017-0.53-0.043-0.749 0.053-1.538 0.471-2.122 1.125-1.002 1.123-1.615 2.613-1.615 4.246 0 0.002 0 0.003 0 0.005v-0c0 1.756 0.698 3.394 1.963 4.612 1.143 1.106 2.702 1.788 4.42 1.788 0.096 0 0.191-0.002 0.285-0.006l-0.013 0c3.296-0.128 5.994-2.809 6.14-6.105 0.004-0.089 0.007-0.193 0.007-0.298 0-1.645-0.623-3.144-1.646-4.275l0.005 0.005zM6.933 30.4c-2.941 0-5.333-2.393-5.333-5.333h1.067c0 2.352 1.915 4.267 4.267 4.267v1.067zM27.077 14.4c-0.272-1.040-0.769-1.941-1.439-2.683l0.005 0.006c-0.572-0.624-1.39-1.013-2.299-1.013-0.432 0-0.843 0.088-1.217 0.247l0.020-0.008c-0.071 0.031-0.165 0.066-0.26 0.096l-0.022 0.006v-4.65c0-0.882 0.718-1.6 1.6-1.6h0.533v-1.067h-0.533c-1.472 0.002-2.665 1.195-2.667 2.667v4.65c-0.117-0.036-0.21-0.070-0.302-0.109l0.020 0.008c-0.353-0.151-0.765-0.239-1.196-0.239-0.909 0-1.728 0.39-2.297 1.011l-0.002 0.002c-0.665 0.736-1.163 1.637-1.425 2.633l-0.010 0.044h11.489zM18.937 11.807c0.009 0.004 0.816 0.46 2.397 0.46s2.388-0.455 2.396-0.46l0.544 0.917c-0.041 0.025-1.037 0.609-2.94 0.609-1.904 0-2.9-0.585-2.942-0.61l0.545-0.916z"></path>
</symbol>
<symbol id="icon-instagram" viewBox="0 0 32 32">
<path d="M30.819 10.043c-0.072-1.633-0.335-2.755-0.714-3.727-0.407-1.066-1.011-1.975-1.774-2.723l-0.001-0.001c-0.748-0.761-1.655-1.363-2.667-1.754l-0.052-0.018c-0.978-0.378-2.095-0.641-3.727-0.713-1.644-0.078-2.166-0.096-6.336-0.096-4.173 0-4.694 0.018-6.332 0.090-1.632 0.072-2.755 0.337-3.726 0.714-1.068 0.407-1.977 1.012-2.725 1.775l-0.001 0.001c-0.759 0.748-1.36 1.655-1.75 2.666l-0.018 0.052c-0.38 0.979-0.644 2.095-0.716 3.727-0.078 1.645-0.096 2.166-0.096 6.335 0 4.173 0.018 4.694 0.090 6.332 0.072 1.632 0.337 2.755 0.714 3.727 0.41 1.066 1.014 1.974 1.776 2.723l0.001 0.001c0.768 0.781 1.699 1.386 2.719 1.77 0.978 0.379 2.094 0.643 3.726 0.714 1.638 0.073 2.161 0.090 6.332 0.090 4.17 0 4.692-0.017 6.331-0.090 1.632-0.072 2.755-0.335 3.726-0.714 2.071-0.816 3.679-2.424 4.477-4.441l0.019-0.053c0.378-0.978 0.643-2.095 0.714-3.727 0.072-1.638 0.090-2.161 0.090-6.331 0-4.172-0.006-4.692-0.077-6.331zM28.052 22.584c-0.067 1.501-0.319 2.31-0.529 2.851-0.529 1.344-1.572 2.388-2.881 2.905l-0.035 0.012c-0.54 0.21-1.357 0.462-2.851 0.529-1.62 0.072-2.107 0.090-6.205 0.090s-4.591-0.018-6.205-0.090c-1.5-0.067-2.31-0.319-2.851-0.529-0.692-0.258-1.281-0.649-1.763-1.144l-0.001-0.001c-0.496-0.484-0.887-1.073-1.136-1.732l-0.011-0.033c-0.21-0.54-0.461-1.357-0.527-2.851-0.073-1.62-0.090-2.107-0.090-6.205s0.017-4.59 0.090-6.205c0.065-1.5 0.317-2.31 0.527-2.851 0.246-0.666 0.636-1.271 1.152-1.764 0.484-0.496 1.073-0.886 1.732-1.135l0.033-0.011c0.54-0.21 1.357-0.462 2.851-0.529 1.62-0.072 2.106-0.090 6.205-0.090 4.105 0 4.59 0.018 6.205 0.090 1.5 0.067 2.31 0.319 2.851 0.529 0.666 0.246 1.271 0.635 1.764 1.146 0.509 0.499 0.9 1.098 1.146 1.764 0.21 0.54 0.462 1.357 0.529 2.851 0.072 1.62 0.090 2.107 0.090 6.205s-0.018 4.579-0.090 6.199z"></path>
<path d="M15.546 8.481c-4.358 0.001-7.89 3.534-7.891 7.892v0c0.001 4.358 3.534 7.89 7.891 7.891h0c4.358-0.001 7.891-3.533 7.892-7.891v-0c-0.001-4.359-3.534-7.892-7.892-7.892h-0zM15.546 21.492c-2.827-0.001-5.119-2.293-5.119-5.12s2.292-5.12 5.12-5.12c0 0 0.001 0 0.001 0h-0c2.827 0.001 5.119 2.293 5.119 5.12s-2.292 5.12-5.12 5.12c-0 0-0.001 0-0.001 0h0zM25.592 8.17c0 1.018-0.825 1.843-1.843 1.843s-1.843-0.825-1.843-1.843v0c0-1.018 0.825-1.843 1.843-1.843s1.843 0.825 1.843 1.843v0z"></path>
</symbol>
<symbol id="icon-logo" viewBox="0 0 33 32">
<path fill="#89c8fd" style="fill: var(--color5, #89c8fd)" d="M24.242 18.41c0-5.816-4.702-10.531-10.503-10.531s-10.503 4.715-10.503 10.531 4.702 10.531 10.503 10.531c5.801 0 10.503-4.715 10.503-10.531z"></path>
<path fill="#60b6ff" style="fill: var(--color6, #60b6ff)" d="M13.739 7.879c-0.539 0-1.069 0.040-1.586 0.119 5.048 0.767 8.917 5.137 8.917 10.411 0 5.276-3.869 9.646-8.917 10.412 0.517 0.079 1.047 0.12 1.586 0.12 5.801 0 10.503-4.715 10.503-10.531s-4.702-10.531-10.503-10.531z"></path>
<path fill="#baeb6c" style="fill: var(--color7, #baeb6c)" d="M12.374 11.971c-1.618 1.014-2.831 2.636-1.921 4.461s2.933 1.115 4.803 0.862c1.871-0.253 0.455 5.526 1.567 6.945s4.247-1.419 3.944-3.245c-0.449-2.702-0.607-3.65 3.034-5.576l0.010-0.004c-1.228-4.155-4.942-7.238-9.414-7.515l-0.001 0.015s-0.405 3.042-2.023 4.056zM20.32 10.202v0zM21.604 11.431h0.001zM6.762 23.175c-0.486-0.741 0.859-2.483 1.163-3.802s-1.517-1.217-2.073-1.673c-0.556-0.457-1.314-2.433-1.871-2.89l-0.089-0.070c-0.424 1.143-0.656 2.379-0.656 3.67 0 0.004 0 0.008 0 0.012 0 3.462 1.672 6.534 4.252 8.452l0.028 0.020 0.003-0.221s0.405-1.723-0.758-3.498z"></path>
<path fill="#baeb6c" style="fill: var(--color7, #baeb6c)" d="M20.767 20.995l-0.007-0.039c-0.221 0.879-0.52 1.649-0.9 2.368l0.027-0.057c0.598-0.705 0.997-1.565 0.879-2.273z"></path>
<path fill="#96d629" style="fill: var(--color8, #96d629)" d="M14.397 7.9l-0.001 0.015s-0.034 0.254-0.121 0.639c3.683 1.394 6.379 4.803 6.751 8.887 0.464-0.634 1.313-1.25 2.774-2.023l0.010-0.004c-1.227-4.155-4.942-7.238-9.414-7.515z"></path>
<path fill="#09a66d" style="fill: var(--color2, #09a66d)" d="M13.725 32c-0.743 0-1.493-0.061-2.242-0.185-3.661-0.61-6.765-2.619-8.8-5.449l-0.027-0.040c-1.592-2.187-2.546-4.926-2.546-7.888 0-0.789 0.068-1.563 0.198-2.315l-0.012 0.080c0.045-0.22 0.237-0.384 0.467-0.384 0.263 0 0.476 0.213 0.476 0.476 0 0.022-0.002 0.044-0.004 0.065l0-0.002c-0.11 0.625-0.173 1.344-0.173 2.078 0 2.755 0.888 5.302 2.393 7.372l-0.025-0.036c1.918 2.669 4.805 4.538 8.136 5.095l0.073 0.010c6.871 1.135 13.385-3.532 14.519-10.403 0.11-0.625 0.173-1.344 0.173-2.078 0-2.755-0.888-5.302-2.393-7.372l0.025 0.036c-1.918-2.669-4.804-4.539-8.135-5.096l-0.073-0.010c-0.238-0.028-0.422-0.229-0.422-0.473 0-0.263 0.213-0.476 0.476-0.476 0.035 0 0.070 0.004 0.103 0.011l-0.003-0.001c3.661 0.609 6.765 2.619 8.801 5.449l0.027 0.040c1.592 2.187 2.546 4.926 2.546 7.888 0 0.789-0.068 1.563-0.198 2.315l0.012-0.080c-0.61 3.661-2.619 6.764-5.45 8.799l-0.040 0.027c-2.333 1.671-5.069 2.545-7.882 2.545z"></path>
<path fill="#49cb5c" style="fill: var(--color9, #49cb5c)" d="M10.837 11.493c-5.079-0.862-8.231-7.257-8.231-7.257s5.086-4.998 10.164-4.136c5.079 0.861 8.23 7.257 8.23 7.257s-5.084 4.998-10.163 4.137z"></path>
<path fill="#07b128" style="fill: var(--color10, #07b128)" d="M12.77 0.1c-0.97-0.165-1.939-0.115-2.874 0.072 4.867 1.093 7.869 7.185 7.869 7.185s-3.328 3.271-7.289 4.064c0.119 0.027 0.239 0.051 0.361 0.073 5.079 0.861 10.163-4.137 10.163-4.137s-3.151-6.394-8.23-7.255z"></path>
<path fill="#09a66d" style="fill: var(--color2, #09a66d)" d="M20.713 6.825l-4.967-0.838-4.64-5.974c-0.37 0.022-0.737 0.069-1.098 0.137l4.351 5.603-3.745-0.631-3.196-4.135c-0.3 0.135-0.591 0.279-0.873 0.427l2.685 3.474-6.193-1.046c-0.278 0.243-0.431 0.393-0.431 0.393s0.102 0.207 0.298 0.55l6.16 1.039-3.417 2.641c0.22 0.226 0.451 0.45 0.692 0.667l4.001-3.093 3.965 0.669-5.393 4.173c0.335 0.156 0.681 0.291 1.037 0.4l5.632-4.357 4.97 0.838c0.288-0.251 0.447-0.407 0.447-0.407s-0.098-0.199-0.287-0.531z"></path>
<path fill="#49cb5c" style="fill: var(--color9, #49cb5c)" d="M24.454 5.286c1.362-3.225 6.083-4.31 6.083-4.31s2.512 4.142 1.149 7.366c-1.361 3.224-6.083 4.31-6.083 4.31s-2.511-4.142-1.149-7.366z"></path>
<path fill="#07b128" style="fill: var(--color10, #07b128)" d="M30.538 0.976s-1.073 0.247-2.345 0.855c0.653 1.381 1.686 4.185 0.703 6.511-0.713 1.687-2.345 2.788-3.739 3.455 0.251 0.533 0.447 0.855 0.447 0.855s4.721-1.086 6.083-4.31c1.362-3.224-1.15-7.366-1.15-7.366z"></path>
<path fill="#09a66d" style="fill: var(--color2, #09a66d)" d="M32.073 5.683l-3.63 1.523 2.383-5.699c-0.17-0.337-0.289-0.531-0.289-0.531s-0.225 0.052-0.59 0.166l-2.463 5.889-1.528-3.758c-0.259 0.229-0.503 0.476-0.724 0.745l1.731 4.259-1.626 3.887c0.159 0.31 0.266 0.487 0.266 0.487s0.245-0.056 0.637-0.181l1.679-4.014 4.153-1.742c0.027-0.345 0.026-0.691 0.001-1.033z"></path>
</symbol>
<symbol id="icon-motorcicle" viewBox="0 0 34 32">
<path fill="#09a66d" style="fill: var(--color2, #09a66d)" d="M31.464 10.039h-5.566c-0.96 0-1.742 0.782-1.742 1.743v6.407h-2.082c0.115-0.421 0.158-0.917 0.13-1.494-0.045-2.44-0.488-4.496-1.316-6.111-0.643-1.255-1.393-2.007-2.037-2.457 0.756-0.777 1.193-1.882 1.193-3.156 0-2.294-1.83-4.16-4.079-4.16s-4.079 1.866-4.079 4.16c0 0.265 0.215 0.481 0.481 0.481h0.327c-0.029 0.165-0.046 0.356-0.046 0.55 0 1.611 1.142 2.956 2.66 3.27l0.022 0.004c-0.16 0.595-0.24 1.296-0.24 2.092l-1.199 1.031-2.918 0.236-3.366-1.113c-0.309-0.103-0.658-0.219-0.962 0-0.299 0.216-0.299 0.593-0.299 0.717v2.503c0 0.266 0.215 0.481 0.481 0.481h0.572l-0.878 3.033c-0.012 0.040-0.019 0.086-0.019 0.134 0 0.266 0.215 0.481 0.481 0.481 0.218 0 0.402-0.145 0.461-0.344l0.001-0.003 0.956-3.301h1.366c-1.7 5.184-0.73 8.644 0.761 12.146h-0.866l-3.599-4.024 0.761-2.629c0.012-0.040 0.019-0.086 0.019-0.134 0-0.266-0.215-0.481-0.481-0.481-0.218 0-0.402 0.145-0.461 0.344l-0.001 0.003-0.728 2.515c-0.020-0-0.043-0-0.066-0-2.286 0-4.201 1.585-4.706 3.717l-0.007 0.033c-0.008 0.032-0.012 0.069-0.012 0.107 0 0.227 0.158 0.418 0.37 0.468l0.003 0.001 0.682 0.157c-0.010 0.104-0.016 0.225-0.016 0.348 0 2.035 1.65 3.685 3.685 3.686h0c0.683 0 1.353-0.191 1.945-0.563 0.682-0.43 1.204-1.061 1.487-1.809l0.008-0.025 0.538 0.123c0.161 0.038 0.313 0.057 0.465-0.025 0.137-0.078 0.237-0.21 0.27-0.366l0.001-0.004c0.034-0.158 0.059-0.318 0.077-0.479h10.055c0.322 2 2.023 3.506 4.053 3.506s3.733-1.506 4.054-3.506h0.368l0.089 0.001c0.137 0 0.336-0.015 0.499-0.18 0.106-0.11 0.171-0.261 0.171-0.426 0-0.015-0-0.029-0.002-0.044l0 0.002c-0.014-0.469-0.085-0.915-0.206-1.341l0.009 0.038c0.383-2.325 0.015-3.742-0.532-4.849 0.345-0.226 0.574-0.616 0.574-1.059v-1.321h2.429c0.96 0 1.742-0.782 1.742-1.744v-5.625c-0.001-0.962-0.78-1.741-1.742-1.743h-0zM6.545 30.099c-0.616 0.386-1.345 0.509-2.051 0.345-1.218-0.289-2.109-1.367-2.109-2.654 0-0.045 0.001-0.090 0.003-0.135l-0 0.006 5.215 1.2c-0.224 0.519-0.589 0.942-1.047 1.231l-0.011 0.007zM8.949 28.185l-7.478-1.721c0.559-1.495 1.975-2.541 3.636-2.541 0.068 0 0.135 0.002 0.202 0.005l-0.009-0 3.664 4.096c-0.004 0.067-0.009 0.123-0.015 0.178l0.001-0.017zM16.212 19.807c-0.14 0.368-0.14 0.82-0.14 1.449v1.815h-1.76v-2.489c0-2.814 1.535-3.315 2.224-3.399h4.715c-0.019 0.639-0.163 1.093-0.436 1.381-0.319 0.336-0.865 0.5-1.668 0.5l-1.726 0.002c-0.615 0-1.022 0.249-1.209 0.74zM16.072 24.033v1.147h-3.428c0.039-0.356 0.149-0.632 0.332-0.822 0.271-0.283 0.652-0.326 0.856-0.326h2.241zM21.229 16.222h-4.372c-0.153-0.457-0.311-1.053-0.44-1.662l-0.021-0.117 1.329-0.862c0.725-0.472 1.103-1.137 1.035-1.827-0.072-0.634-0.484-1.158-1.047-1.387l-0.011-0.004c-0.533-0.213-1.108-0.146-1.614 0.178 0.041-0.46 0.12-0.87 0.232-1.219 0.205-0.021 0.409-0.061 0.608-0.12 0.425-0.099 0.799-0.252 1.141-0.455l-0.018 0.010c0.926 0.553 2.962 2.348 3.178 7.467zM12.884 4.488c0.226-1.535 1.522-2.716 3.082-2.716 1.719 0 3.117 1.434 3.117 3.198 0 1.434-0.688 2.59-1.797 3.099v-2.53c0-0.438-0.167-0.976-0.966-1.049-0.012-0.001-0.026-0.002-0.040-0.002-0.001 0-0.003 0-0.004 0h-3.393zM13.611 6.005c0-0.19 0.021-0.375 0.064-0.554h2.579c0.026 0.003 0.049 0.006 0.071 0.011l-0.005-0.001c0.003 0.023 0.005 0.049 0.005 0.075 0 0.001 0 0.002 0 0.004v-0 2.812c-0.115 0.016-0.23 0.025-0.345 0.025h-0.003c-1.307-0.004-2.366-1.064-2.366-2.372v-0zM12.987 13.435l1.139-0.092c0.106-0.009 0.201-0.051 0.275-0.115l-0.001 0.001 2.055-1.767c0.199-0.172 0.41-0.259 0.618-0.259 0.092 0 0.182 0.017 0.271 0.053 0.254 0.102 0.435 0.334 0.459 0.592 0.031 0.325-0.182 0.654-0.602 0.927l-2.29 1.486h-1.925v-0.825zM10.956 13.599l1.070-0.086v0.747h-1.243c-0.162 0-0.201-0.134-0.205-0.246-0.003-0.064 0.003-0.383 0.378-0.414zM9.817 13.268c-0.127 0.207-0.202 0.458-0.202 0.726 0 0.093 0.009 0.183 0.026 0.271l-0.001-0.009v0.004h-2.329v-1.825l2.508 0.829c0 0.002 0 0.003-0.002 0.004zM10.785 15.221h4.269c0 0 0.001 0 0.002 0 0.097 0 0.187-0.029 0.263-0.078l-0.002 0.001 0.217-0.142c0.105 0.463 0.224 0.913 0.354 1.338-0.98 0.29-2.536 1.225-2.536 4.241v2.537c-0.424 0.081-0.79 0.285-1.070 0.574l-0 0c-0.351 0.369-0.552 0.867-0.601 1.487h-0.97c-0.977-2.816-1.349-5.813 0.075-9.959zM11.577 27.367c-0.080-0.154-0.252-0.558-0.417-0.965l-0.093-0.26h4.992c0.647 0 0.975-0.295 0.975-0.875v-3.528h3.795c0.266 0 0.481-0.215 0.481-0.481s-0.215-0.481-0.481-0.481v0h-3.791c0.006-0.272 0.023-0.496 0.074-0.628 0.024-0.065 0.044-0.12 0.308-0.12l1.726-0.002c1.081-0.002 1.854-0.263 2.364-0.8 0.025-0.025 0.046-0.051 0.069-0.077h6.494v1.321c0 0.166-0.14 0.305-0.304 0.305h-4.786c-0.266 0-0.481 0.215-0.481 0.481s0.215 0.481 0.481 0.481h4.503c0.381 0.706 0.722 1.584 0.702 2.97-0.955-1.321-2.492-2.171-4.227-2.171-0.004 0-0.008 0-0.012 0h0.001c-0.004 0-0.009-0-0.014-0-1.447 0-2.755 0.593-3.694 1.55l-0.001 0.001c-0.844 0.853-1.4 1.993-1.51 3.261l-0.001 0.020-7.153-0.002zM24.011 30.874c-1.503 0-2.771-1.083-3.077-2.545h6.154c-0.307 1.462-1.575 2.545-3.077 2.545zM27.634 27.368h-7.938c0.236-2.174 2.054-3.87 4.254-3.87 1.931 0 3.554 1.273 4.091 3.056 0.074 0.234 0.131 0.51 0.162 0.793l0.002 0.020h-0.572zM32.245 17.407c-0 0.431-0.349 0.78-0.78 0.781h-6.346v-2.484h7.126v1.701zM32.245 14.744h-7.126v-1.022h7.126v1.022zM32.245 12.76h-7.126v-0.978c0-0.431 0.35-0.781 0.779-0.781h5.566c0.43 0 0.779 0.35 0.779 0.781v0.978z"></path>
</symbol>
<symbol id="icon-order" viewBox="0 0 23 32">
<path fill="#09a66d" style="fill: var(--color2, #09a66d)" d="M7.146 22.412h8.109c0.253 0 0.457-0.205 0.457-0.457s-0.205-0.457-0.457-0.457h-8.108c-0.253 0-0.457 0.205-0.457 0.457s0.205 0.457 0.457 0.457v0zM8.579 11.92h5.429c0.414 0 0.773-0.266 0.894-0.663l1.139-3.754c0.026-0.082 0.041-0.175 0.041-0.273 0-0.209-0.069-0.402-0.186-0.557l0.002 0.002c-0.17-0.23-0.441-0.378-0.746-0.378-0.001 0-0.002 0-0.004 0h-0.406l-0.83-2.072c-0.187-0.464-0.634-0.785-1.155-0.785-0.001 0-0.003 0-0.004 0h-2.92c-0.514 0-0.969 0.308-1.16 0.785l-0.829 2.072h-0.406c-0.298 0-0.571 0.137-0.749 0.378-0.115 0.153-0.185 0.346-0.185 0.555 0 0.097 0.015 0.191 0.043 0.279l-0.002-0.007 1.139 3.754c0.118 0.386 0.472 0.663 0.89 0.663 0.001 0 0.003 0 0.004 0h-0zM7.424 7.221c0.014-0.019 2.487-0.002 2.505-0.008 0.253 0 0.457-0.205 0.457-0.457s-0.205-0.457-0.457-0.457h-1.1l0.693-1.733c0.050-0.124 0.17-0.211 0.309-0.211 0 0 0.001 0 0.001 0h2.921c0.137 0 0.259 0.083 0.31 0.211l0.693 1.733h-1.694c-0.253 0-0.457 0.205-0.457 0.457s0.205 0.457 0.457 0.457v0c0.016 0 3.088-0.008 3.1 0.008 0.013 0.018-1.137 3.752-1.137 3.771 0 0.041-5.463 0.008-5.465 0-0.006-0.020-1.15-3.753-1.137-3.771zM7.146 26.974c-0.253 0-0.457 0.205-0.457 0.457s0.205 0.457 0.457 0.457h8.109c0.253 0 0.457-0.205 0.457-0.457s-0.205-0.457-0.457-0.457h-8.108zM19.372 25.602c0-0.253-0.205-0.457-0.457-0.457v0h-11.768c-0.253 0-0.457 0.205-0.457 0.457s0.205 0.457 0.457 0.457h11.768c0.253 0 0.457-0.205 0.457-0.457v0zM21.659 20.716c0 0 0 0 0 0 0.253 0 0.457-0.205 0.457-0.457 0-0 0-0.001 0-0.001v0-17.275c-0.001-1.262-1.024-2.285-2.287-2.287h-17.071c-1.262 0.001-2.285 1.024-2.287 2.287v26.646c0.001 1.262 1.024 2.285 2.287 2.287h17.071c1.262-0.001 2.285-1.024 2.287-2.287v-7.237c0-0.253-0.205-0.457-0.457-0.457s-0.457 0.205-0.457 0.457v0 7.237c-0.001 0.757-0.615 1.371-1.372 1.372h-17.071c-0.757-0.001-1.371-0.615-1.372-1.372v-26.646c0-0.757 0.615-1.373 1.372-1.373h17.071c0.757 0 1.372 0.616 1.372 1.372v17.275c0 0.253 0.204 0.457 0.457 0.457zM5.339 22.761c-0.226 0.003-0.462 0.005-0.679 0.006 0.155-0.208 0.349-0.478 0.592-0.824 0.212-0.304 0.363-0.579 0.402-0.865 0.007-0.047 0.019-0.131 0.019-0.176 0-0.681-0.554-1.236-1.236-1.236-0.589 0-1.099 0.42-1.213 0.997-0.006 0.029-0.010 0.062-0.010 0.096 0 0.253 0.205 0.457 0.457 0.457 0.224 0 0.411-0.162 0.45-0.375l0-0.003c0.032-0.147 0.16-0.256 0.315-0.256 0.169 0 0.307 0.13 0.321 0.295l0 0.001c0.012 0.164-0.072 0.277-0.254 0.539-0.481 0.687-0.767 1.061-0.921 1.264-0.269 0.351-0.398 0.81 0.068 0.965 0.060 0.020 1.268 0.034 1.701 0.028 0.25-0.003 0.452-0.207 0.452-0.457 0-0.253-0.205-0.457-0.457-0.457-0.002 0-0.004 0-0.006 0h0zM18.914 19.668h-11.767c-0.253 0-0.457 0.205-0.457 0.457s0.205 0.457 0.457 0.457h11.768c0.253 0 0.457-0.205 0.457-0.457s-0.205-0.457-0.457-0.457v0zM4.508 25.145c-0.589 0-1.099 0.419-1.213 0.997-0.006 0.029-0.010 0.062-0.010 0.096 0 0.253 0.205 0.457 0.457 0.457 0.224 0 0.411-0.162 0.45-0.375l0-0.003c0.030-0.149 0.16-0.259 0.315-0.259 0.178 0 0.322 0.144 0.322 0.322s-0.144 0.322-0.322 0.322c-0 0-0 0-0 0v0c-0.253 0-0.457 0.205-0.457 0.457s0.205 0.457 0.457 0.457v0c0 0 0 0 0.001 0 0.178 0 0.322 0.144 0.322 0.322s-0.144 0.322-0.322 0.322c-0.178 0-0.322-0.144-0.322-0.322v0c0-0.253-0.205-0.457-0.457-0.457s-0.457 0.205-0.457 0.457v0c0 0.671 0.557 1.236 1.236 1.236 0.681 0 1.236-0.554 1.236-1.236 0-0.295-0.104-0.566-0.277-0.779 0.173-0.212 0.277-0.484 0.277-0.778 0-0.681-0.554-1.236-1.236-1.236zM4.508 18.171c0.253 0 0.457-0.205 0.457-0.457v0-3.041c0-0.253-0.205-0.457-0.457-0.457v0h-0.65c-0.253 0-0.457 0.205-0.457 0.457s0.205 0.457 0.457 0.457h0.193v2.584c0 0.253 0.205 0.457 0.457 0.457zM7.146 16.958h8.109c0.006 0 0.012 0 0.019 0 0.253 0 0.457-0.205 0.457-0.457s-0.205-0.457-0.457-0.457c-0.007 0-0.013 0-0.020 0l0.001-0h-8.108c-0.006-0-0.012-0-0.019-0-0.253 0-0.457 0.205-0.457 0.457s0.205 0.457 0.457 0.457c0.007 0 0.013-0 0.020-0l-0.001 0zM18.914 14.215h-11.768c-0.253 0-0.457 0.205-0.457 0.457s0.205 0.457 0.457 0.457h11.768c0.253 0 0.457-0.205 0.457-0.457s-0.205-0.457-0.457-0.457v0z"></path>
</symbol>
<symbol id="icon-plus" viewBox="0 0 32 32">
<path d="M19.473 12.312h12.254v4.973h-12.254v13.069h-5.613v-13.069h-12.252v-4.975h12.254v-12.073h5.611v12.075z"></path>
</symbol>
<symbol id="icon-search" viewBox="0 0 32 32">
<path stroke-linejoin="round" stroke-linecap="round" stroke-miterlimit="4" stroke-width="2.2857" d="M28.876 14.883c0 7.565-6.133 13.698-13.698 13.698s-13.698-6.133-13.698-13.698c0-7.565 6.133-13.698 13.698-13.698s13.698 6.133 13.698 13.698z"></path>
<path stroke-linejoin="round" stroke-linecap="round" stroke-miterlimit="4" stroke-width="2.2857" d="M24.706 25.12l5.37 5.356"></path>
</symbol>
<symbol id="icon-star" viewBox="0 0 32 32">
<path fill="#fed42d" style="fill: var(--color11, #fed42d)" d="M31.954 12.329c-0.111-0.337-0.4-0.586-0.752-0.638l-0.005-0.001-9.92-1.441-4.436-8.99c-0.156-0.313-0.474-0.524-0.841-0.524s-0.685 0.211-0.839 0.518l-0.002 0.005-4.436 8.99-9.92 1.441c-0.457 0.067-0.804 0.457-0.804 0.928 0 0.264 0.109 0.502 0.284 0.672l0 0 7.178 6.997-1.694 9.88c-0.008 0.047-0.013 0.102-0.013 0.157 0 0.518 0.42 0.938 0.938 0.938 0.159 0 0.309-0.040 0.44-0.11l-0.005 0.002 8.873-4.665 8.873 4.665c0.127 0.068 0.277 0.108 0.437 0.108 0.517 0 0.937-0.419 0.937-0.937 0-0.056-0.005-0.111-0.014-0.165l0.001 0.006-1.695-9.88 7.179-6.997c0.175-0.17 0.283-0.408 0.283-0.671 0-0.104-0.017-0.203-0.048-0.297l0.002 0.007z"></path>
<path fill="#fcbf29" style="fill: var(--color12, #fcbf29)" d="M31.954 12.329c-0.111-0.337-0.4-0.586-0.752-0.638l-0.005-0.001-9.92-1.441-4.436-8.99c-0.157-0.311-0.474-0.521-0.84-0.521-0 0-0.001 0-0.002 0h0v25.752l8.872 4.665c0.127 0.068 0.277 0.108 0.437 0.108 0.207 0 0.398-0.067 0.553-0.181l-0.003 0.002c0.235-0.173 0.386-0.448 0.386-0.759 0-0.056-0.005-0.111-0.014-0.164l0.001 0.006-1.695-9.88 7.179-6.997c0.175-0.17 0.283-0.408 0.283-0.671 0-0.104-0.017-0.203-0.048-0.297l0.002 0.007z"></path>
</symbol>
<symbol id="icon-star-not-full" viewBox="0 0 33 32">
<path fill="#f1b90b" style="fill: var(--color13, #f1b90b)" d="M16.618 22.406l5.959 3.335-1.332-6.697 5.014-4.637-6.781-0.804-2.86-6.201v15.004zM16.618 25.622l-9.898 5.54 2.211-11.124-8.329-7.7 11.263-1.337 4.752-10.298 4.751 10.298 11.264 1.337-8.329 7.7 2.211 11.124-9.897-5.54z"></path>
</symbol>
<symbol id="icon-twitter" viewBox="0 0 32 32">
<path d="M30.848 6.845c-1.142 0.502-2.359 0.833-3.628 0.995 1.305-0.784 2.286-1.996 2.757-3.437l0.013-0.044c-1.15 0.694-2.488 1.224-3.913 1.512l-0.081 0.014c-1.152-1.228-2.785-1.993-4.596-1.993-3.477 0-6.296 2.819-6.296 6.296 0 0.001 0 0.003 0 0.004v-0c0 0.499 0.042 0.978 0.146 1.435-5.235-0.256-9.869-2.765-12.98-6.587-0.541 0.912-0.861 2.010-0.863 3.183v0.001c0 2.181 1.124 4.114 2.798 5.234-1.049-0.029-2.025-0.313-2.877-0.792l0.031 0.016v0.069c0.004 3.037 2.148 5.573 5.004 6.18l0.041 0.007c-0.512 0.141-1.071 0.207-1.651 0.207-0.030 0.001-0.065 0.001-0.1 0.001-0.387 0-0.765-0.039-1.129-0.115l0.036 0.006c0.817 2.495 3.132 4.328 5.885 4.388-2.126 1.674-4.842 2.685-7.794 2.685-0.005 0-0.010 0-0.014 0h0.001c-0.517 0-1.012-0.023-1.508-0.086 2.713 1.772 6.036 2.826 9.604 2.826 0.020 0 0.040-0 0.061-0h-0.003c11.589 0 17.925-9.6 17.925-17.921 0-0.279-0.010-0.548-0.023-0.814 1.246-0.9 2.293-1.984 3.125-3.225l0.029-0.045z"></path>
</symbol>
<symbol id="icon-user" viewBox="0 0 32 32">
<path fill="#09a66d" style="fill: var(--color2, #09a66d)" d="M16.002 0c-4.571 0-8.308 3.737-8.308 8.308s3.737 8.309 8.308 8.309c4.572 0 8.309-3.737 8.309-8.309-0.001-4.571-3.737-8.308-8.309-8.308zM30.26 23.256c-0.241-0.582-0.521-1.084-0.85-1.547l0.016 0.024c-1.669-2.468-4.245-4.1-7.147-4.5-0.363-0.036-0.762 0.037-1.052 0.255-1.431 1.065-3.234 1.705-5.186 1.705-0.014 0-0.027-0-0.041-0h0.002c-0.011 0-0.024 0-0.036 0-1.953 0-3.756-0.64-5.211-1.723l0.023 0.017c-0.225-0.171-0.509-0.273-0.818-0.273-0.083 0-0.164 0.007-0.242 0.021l0.008-0.001c-2.999 0.425-5.541 2.095-7.125 4.461l-0.023 0.037c-0.303 0.438-0.582 0.939-0.812 1.466l-0.022 0.058c-0.109 0.218-0.073 0.472 0.036 0.69 0.29 0.508 0.653 1.016 0.98 1.45 0.508 0.69 1.052 1.307 1.669 1.887 0.507 0.508 1.088 0.98 1.669 1.452 2.707 2.039 6.127 3.265 9.832 3.265 0.013 0 0.025 0 0.038-0h-0.002c3.556 0 7.002-1.125 9.868-3.265 0.615-0.466 1.16-0.941 1.67-1.451l-0 0c0.58-0.581 1.16-1.198 1.668-1.887 0.363-0.472 0.69-0.943 0.98-1.451 0.181-0.218 0.217-0.472 0.109-0.69z"></path>
</symbol>

</defs>
</svg>
