<svg width="17" height="20" fill="none" xmlns="http://www.w3.org/2000/svg"><path d="M13.554 10.532c-.021-2.303 1.937-3.424 2.027-3.476-1.11-1.574-2.829-1.79-3.432-1.807-1.444-.147-2.845.842-3.58.842-.75 0-1.883-.827-3.104-.803-1.57.024-3.04.909-3.846 2.284-1.663 2.803-.423 6.923 1.17 9.189.798 1.11 1.73 2.349 2.949 2.305 1.192-.047 1.638-.74 3.077-.74 1.427 0 1.845.74 3.088.712 1.28-.02 2.086-1.114 2.856-2.234.92-1.272 1.29-2.525 1.305-2.59-.03-.01-2.486-.922-2.51-3.682ZM11.205 3.759c.642-.781 1.08-1.844.959-2.922-.929.04-2.09.625-2.758 1.389-.592.673-1.12 1.776-.984 2.814 1.043.076 2.114-.512 2.783-1.281Z" fill="#fff"/></svg>