<svg width="30" height="30" fill="none" xmlns="http://www.w3.org/2000/svg"><path d="M21.472 9h1.45c1.207 0 2.217-.86 2.45-2h-1.45c-1.207 0-2.217.86-2.45 2ZM10 4.5c.05 0 .098.006.147.008l.351-3.51C10.5.703 10.297.5 10.048.5h-.095A.453.453 0 0 0 9.5.953l.354 3.554c.049-.001.097-.007.146-.007ZM6 15c0-.17.018-.337.045-.5H5v.342c.375.179.713.42 1 .713V15ZM5.595 2.778l1.71 2.518c.135-.086.273-.166.416-.24L6.692 2.228a.548.548 0 0 0-.765-.311l-.125.062a.548.548 0 0 0-.207.8ZM7.691 13.5h5.569l.656-3.148c.056-.268.084-.543.084-.816C14 7.295 12.206 5.5 10 5.5c-2.205 0-4 1.795-4 4 0 .31.029.584.084.852l.578 2.773A2.993 2.993 0 0 1 9 12v1c-.502 0-.957.193-1.309.5Zm3.809-6h1v1h-1v-1Zm0 2h1v1h-1v-1Zm0 2h1v1h-1v-1ZM4.5 17.5h1.45a2.504 2.504 0 0 0-2.45-2H2.05c.233 1.14 1.243 2 2.45 2ZM14.405 2.777a.548.548 0 0 0-.209-.798l-.124-.063a.546.546 0 0 0-.736.245.613.613 0 0 0-.029.066L12.28 5.055c.143.074.281.154.415.24l1.711-2.518ZM13.492 23.5H27.5v-3H12.826c.442.928.666 1.949.666 3Zm12.008-2h1v1h-1v-1ZM12.232 27.5H26c.827 0 1.5-.673 1.5-1.5v-1.5H13.428a6.95 6.95 0 0 1-1.196 3Zm13.268-2h1v1h-1v-1ZM7.071 14.5A1.97 1.97 0 0 0 7 15v.5h22.5v-1H7.071ZM7 17.933c.1-.024.201-.05.293-.089a3.883 3.883 0 0 1 4.413.977c.194.215.367.444.531.678H27.5v-3H7v1.434Zm18.5-.433h1v1h-1v-1Z" fill="#09A66D"/><path d="M10.963 19.49a2.918 2.918 0 0 0-3.277-.727 2.94 2.94 0 0 1-.686.193v.942c.497-.185.968-.575 1.147-.753l.707.708C8.736 19.971 7.674 21 6.5 21c-1.173 0-2.237-1.03-2.354-1.147l.707-.708c.179.178.65.567 1.147.753V18.5H4.5c-.17 0-.335-.016-.497-.04-.702.05-1.442.442-1.989 1.055A5.99 5.99 0 0 0 .5 23.5c0 1.646.654 3.182 1.84 4.324a5.96 5.96 0 0 0 4.399 1.671c3.09-.12 5.619-2.633 5.756-5.723a5.976 5.976 0 0 0-1.532-4.282ZM6.5 28.5c-2.757 0-5-2.243-5-5h1c0 2.205 1.795 4 4 4v1ZM25.385 13.5a5.97 5.97 0 0 0-1.344-2.51 2.92 2.92 0 0 0-3.277-.726 2.85 2.85 0 0 1-.264.095V6c0-.827.673-1.5 1.5-1.5h.5v-1H22A2.503 2.503 0 0 0 19.5 6v4.359a2.85 2.85 0 0 1-.264-.095 2.92 2.92 0 0 0-3.277.726 5.966 5.966 0 0 0-1.345 2.51h10.771Zm-7.632-2.431c.008.004.765.431 2.247.431 1.482 0 2.239-.427 2.246-.431l.51.86c-.038.023-.972.571-2.756.571-1.785 0-2.719-.548-2.758-.572l.511-.859Z" fill="#09A66D"/></svg>