<svg width="19" height="20" fill="none" xmlns="http://www.w3.org/2000/svg"><path d="M.858.702a1.474 1.474 0 0 0-.354 1.05v16.59c-.024.381.103.757.354 1.05l.054.053 9.545-9.285v-.218L.912.65.858.702Z" fill="url(#a)"/><path d="m13.615 13.257-3.158-3.097v-.218l3.158-3.105.07.038 3.782 2.092c1.079.593 1.079 1.568 0 2.168L13.7 13.22l-.085.037Z" fill="url(#b)"/><path d="m13.708 13.212-3.251-3.165-9.599 9.345a1.278 1.278 0 0 0 1.602.045l11.256-6.225" fill="url(#c)"/><path d="M13.708 6.882 2.453.657A1.278 1.278 0 0 0 .85.702l9.607 9.345 3.25-3.165Z" fill="url(#d)"/><path opacity=".2" d="M13.615 13.145 2.453 19.332a1.31 1.31 0 0 1-1.541 0l-.054.053.054.052a1.302 1.302 0 0 0 1.54 0l11.256-6.225-.093-.067Z" fill="#000"/><path opacity=".12" d="M.858 19.287a1.474 1.474 0 0 1-.354-1.05v.113c-.024.38.103.756.354 1.05l.054-.053-.054-.06Zm16.61-8.265-3.853 2.123.07.067 3.782-2.085c.215-.098.4-.25.534-.44.136-.189.217-.41.237-.64a1.378 1.378 0 0 1-.27.575c-.133.169-.304.306-.5.4Z" fill="#000"/><path opacity=".25" d="m2.453.762 15.014 8.31c.197.094.368.231.502.4.133.17.225.366.268.575a1.291 1.291 0 0 0-.236-.64 1.34 1.34 0 0 0-.534-.44L2.453.657C1.374.064.496.559.496 1.759v.113C.519.664 1.382.169 2.453.762Z" fill="#fff"/><defs><linearGradient id="a" x1="9.609" y1="1.58" x2="-2.971" y2="14.502" gradientUnits="userSpaceOnUse"><stop stop-color="#00A0FF"/><stop offset=".01" stop-color="#00A1FF"/><stop offset=".26" stop-color="#00BEFF"/><stop offset=".51" stop-color="#00D2FF"/><stop offset=".76" stop-color="#00DFFF"/><stop offset="1" stop-color="#00E3FF"/></linearGradient><linearGradient id="b" x1="18.877" y1="10.047" x2=".242" y2="10.047" gradientUnits="userSpaceOnUse"><stop stop-color="#FFE000"/><stop offset=".41" stop-color="#FFBD00"/><stop offset=".78" stop-color="orange"/><stop offset="1" stop-color="#FF9C00"/></linearGradient><linearGradient id="c" x1="11.944" y1="11.772" x2="-5.12" y2="29.292" gradientUnits="userSpaceOnUse"><stop stop-color="#FF3A44"/><stop offset="1" stop-color="#C31162"/></linearGradient><linearGradient id="d" x1="-1.561" y1="-4.818" x2="6.056" y2="3.006" gradientUnits="userSpaceOnUse"><stop stop-color="#32A071"/><stop offset=".07" stop-color="#2DA771"/><stop offset=".48" stop-color="#15CF74"/><stop offset=".8" stop-color="#06E775"/><stop offset="1" stop-color="#00F076"/></linearGradient></defs></svg>