<svg width="57" height="56" fill="none" xmlns="http://www.w3.org/2000/svg"><g clip-path="url(#a)"><path d="M42.424 32.217c0-10.178-8.229-18.43-18.38-18.43-10.152 0-18.38 8.252-18.38 18.43 0 10.178 8.228 18.43 18.38 18.43 10.151 0 18.38-8.252 18.38-18.43Z" fill="#89C8FD"/><path d="M24.044 13.788c-.944 0-1.87.07-2.776.208 8.834 1.342 15.605 8.989 15.605 18.22 0 9.233-6.77 16.88-15.605 18.221.905.138 1.832.21 2.776.21 10.151 0 18.38-8.252 18.38-18.43 0-10.178-8.229-18.43-18.38-18.43Z" fill="#60B6FF"/><path d="M21.654 20.95c-2.831 1.774-4.955 4.613-3.362 7.807s5.132 1.952 8.406 1.508c3.274-.443.796 9.67 2.743 12.154 1.947 2.484 7.432-2.484 6.902-5.678-.786-4.728-1.062-6.387 5.309-9.758l.017-.007C39.52 19.705 33.02 14.31 25.195 13.825l-.001.027s-.708 5.323-3.54 7.098ZM35.56 17.854l.003.003-.003-.003ZM37.807 20.004h.001ZM11.833 40.556c-.85-1.296 1.504-4.346 2.035-6.653.531-2.307-2.655-2.13-3.628-2.928-.973-.799-2.3-4.258-3.274-5.057l-.155-.123c-.742 2-1.148 4.163-1.148 6.422a18.417 18.417 0 0 0 7.491 14.847l.006-.386s.708-3.016-1.327-6.122Z" fill="#BAEB6C"/><path d="m36.343 36.741-.012-.068a18.32 18.32 0 0 1-1.527 4.045c1.046-1.234 1.744-2.738 1.539-3.977Z" fill="#BAEB6C"/><path d="m25.195 13.825-.001.027s-.06.445-.211 1.119c6.445 2.44 11.164 8.406 11.814 15.553.812-1.11 2.297-2.188 4.855-3.541l.017-.007c-2.147-7.271-8.648-12.666-16.474-13.151Z" fill="#96D629"/><path d="M24.018 56c-1.301 0-2.613-.107-3.923-.324A23.613 23.613 0 0 1 4.647 46.07a23.608 23.608 0 0 1-4.13-17.715.833.833 0 0 1 1.643.271A21.956 21.956 0 0 0 6.001 45.1a21.959 21.959 0 0 0 14.366 8.934c12.025 1.986 23.423-6.181 25.409-18.205a21.956 21.956 0 0 0-3.841-16.474A21.958 21.958 0 0 0 27.57 10.42a.833.833 0 1 1 .27-1.642 23.612 23.612 0 0 1 15.449 9.606 23.61 23.61 0 0 1 4.13 17.715 23.61 23.61 0 0 1-9.607 15.447C33.73 54.47 28.942 56 24.019 56Z" fill="#09A66D"/><path d="M18.964 20.113C10.075 18.604 4.56 7.413 4.56 7.413S13.46-1.333 22.347.175c8.888 1.507 14.402 12.699 14.402 12.699s-8.897 8.746-17.785 7.239Z" fill="#49CB5C"/><path d="M22.347.175c-1.697-.288-3.394-.202-5.03.126 8.517 1.913 13.77 12.573 13.77 12.573s-5.824 5.724-12.755 7.112c.209.047.419.09.632.127 8.888 1.507 17.785-7.24 17.785-7.24S31.235 1.684 22.347.176Z" fill="#07B128"/><path d="m36.247 11.944-8.692-1.466L19.435.023c-.647.038-1.29.121-1.922.24l7.615 9.805-6.554-1.105-5.593-7.236c-.525.237-1.035.488-1.527.748l4.699 6.08-10.838-1.83c-.487.426-.754.688-.754.688s.179.362.521.962l10.78 1.819-5.979 4.622c.385.396.79.788 1.211 1.168l7.002-5.413 6.939 1.17-9.437 7.302c.586.273 1.191.51 1.815.7l9.856-7.624 8.698 1.467c.504-.44.782-.712.782-.712s-.172-.349-.502-.93Z" fill="#09A66D"/><path d="M42.795 9.25C45.179 3.607 53.44 1.708 53.44 1.708s4.396 7.248 2.011 12.89C53.07 20.24 44.806 22.14 44.806 22.14s-4.395-7.248-2.011-12.89Z" fill="#49CB5C"/><path d="M53.441 1.708s-1.878.432-4.103 1.496c1.142 2.417 2.95 7.323 1.23 11.394-1.247 2.952-4.103 4.879-6.543 6.046.44.933.782 1.496.782 1.496s8.262-1.9 10.646-7.542c2.384-5.642-2.012-12.89-2.012-12.89Z" fill="#07B128"/><path d="m56.128 9.945-6.353 2.665 4.171-9.973c-.298-.59-.505-.93-.505-.93s-.393.091-1.033.291l-4.31 10.306-2.674-6.577c-.453.4-.88.833-1.267 1.304l3.029 7.453-2.846 6.803c.278.542.466.853.466.853s.428-.098 1.115-.316l2.938-7.024 7.267-3.048c.048-.604.045-1.21.002-1.807Z" fill="#09A66D"/></g><defs><clipPath id="a"><path fill="#fff" transform="translate(.194)" d="M0 0h56v56H0z"/></clipPath></defs></svg>