<svg width="41" height="39" fill="none" xmlns="http://www.w3.org/2000/svg"><path d="M38.347 12.235h-6.783c-1.17 0-2.123.953-2.123 2.124v7.808h-2.537c.14-.513.193-1.118.159-1.821-.055-2.974-.595-5.48-1.604-7.448-.784-1.53-1.698-2.446-2.483-2.994.921-.947 1.454-2.294 1.454-3.847 0-2.796-2.23-5.07-4.971-5.07s-4.971 2.274-4.971 5.07c0 .323.262.586.586.586h.398a4.069 4.069 0 0 0 3.213 4.66c-.195.725-.292 1.579-.292 2.55l-1.461 1.256-3.556.288-4.102-1.356c-.376-.125-.802-.267-1.172 0-.364.263-.364.723-.364.874v3.05c0 .324.262.586.586.586h.697l-1.07 3.697a.586.586 0 0 0 1.126.326l1.165-4.023h1.665c-2.072 6.318-.89 10.535.928 14.803H11.78L7.394 28.45l.928-3.204a.586.586 0 1 0-1.126-.326l-.887 3.065a5.894 5.894 0 0 0-5.824 4.569.586.586 0 0 0 .44.702l.831.191a4.492 4.492 0 0 0 4.471 4.916c.832 0 1.649-.233 2.371-.686a4.454 4.454 0 0 0 1.822-2.236l.656.15c.196.046.381.07.567-.03a.673.673 0 0 0 .33-.45c.041-.192.072-.387.094-.584h12.255c.392 2.437 2.465 4.273 4.94 4.273 2.476 0 4.55-1.836 4.941-4.273h.448l.109.001c.167 0 .41-.018.608-.22a.75.75 0 0 0 .207-.57 6.645 6.645 0 0 0-.24-1.587c.467-2.834.018-4.56-.648-5.91.421-.276.7-.751.7-1.291v-1.61h2.96c1.17 0 2.123-.953 2.123-2.125V14.36a2.126 2.126 0 0 0-2.123-2.124ZM7.977 36.683c-.751.47-1.639.62-2.5.421a3.32 3.32 0 0 1-2.567-3.391l6.356 1.462a3.293 3.293 0 0 1-1.29 1.508Zm2.93-2.333-9.114-2.098a4.719 4.719 0 0 1 4.666-3.091l4.465 4.992a4.73 4.73 0 0 1-.016.197Zm8.851-10.21c-.17.448-.17 1-.17 1.766v2.212h-2.145v-3.034c0-3.43 1.871-4.04 2.711-4.142H25.9c-.023.779-.199 1.332-.532 1.683-.389.41-1.054.609-2.033.61l-2.103.002c-.75 0-1.246.304-1.473.902Zm-.17 5.15v1.398H15.41c.047-.434.182-.77.404-1.002.33-.345.795-.397 1.043-.397h2.731Zm6.285-9.52h-5.329a21.913 21.913 0 0 1-.561-2.168l1.62-1.051c.884-.575 1.344-1.386 1.262-2.227a2.071 2.071 0 0 0-1.29-1.696c-.65-.26-1.35-.178-1.967.217.05-.56.146-1.06.283-1.486.25-.025.498-.074.741-.146A4.857 4.857 0 0 0 22 10.671c1.128.674 3.61 2.861 3.873 9.1Zm-10.17-14.3c.276-1.871 1.855-3.31 3.756-3.31 2.095 0 3.799 1.748 3.799 3.897 0 1.748-.838 3.157-2.19 3.777V6.75c0-.534-.204-1.19-1.177-1.278a.576.576 0 0 0-.053-.002h-4.135Zm.885 1.848c0-.231.026-.457.078-.675h3.143a.908.908 0 0 1 .081.012.705.705 0 0 1 .006.096v3.427c-.14.02-.28.031-.42.031h-.004a2.892 2.892 0 0 1-2.884-2.891Zm-.76 9.056 1.388-.112a.586.586 0 0 0 .335-.14l2.505-2.154c.242-.21.5-.316.753-.316.112 0 .222.021.33.064.31.124.53.407.56.722.038.396-.222.797-.734 1.13l-2.791 1.811h-2.346v-1.005Zm-2.476.2 1.304-.105v.91h-1.515c-.197 0-.245-.163-.25-.3-.004-.078.004-.467.461-.505Zm-1.387-.404a1.714 1.714 0 0 0-.216 1.204v.005H8.91v-2.224l3.057 1.01c0 .002 0 .004-.002.005Zm1.179 2.381h5.203a.585.585 0 0 0 .32-.094l.264-.173c.128.564.273 1.113.431 1.631-1.194.353-3.091 1.493-3.091 5.169v3.092a2.446 2.446 0 0 0-1.305.7c-.428.45-.673 1.057-.732 1.812h-1.182c-1.191-3.432-1.644-7.085.092-12.137Zm.966 14.802a47.193 47.193 0 0 1-.622-1.493h6.084c.788 0 1.188-.359 1.188-1.067v-4.3h4.625a.586.586 0 0 0 0-1.173h-4.62c.007-.332.028-.605.09-.765.029-.079.054-.146.376-.146l2.104-.002c1.317-.002 2.26-.32 2.881-.975.03-.03.056-.062.084-.094H34.215v1.61c0 .202-.17.372-.37.372h-5.833a.586.586 0 1 0 0 1.172H33.5c.464.86.88 1.93.855 3.62a6.337 6.337 0 0 0-5.165-2.646 6.31 6.31 0 0 0-4.52 1.89 6.454 6.454 0 0 0-1.842 3.998l-8.718-.002Zm15.153 4.275c-1.832 0-3.377-1.32-3.75-3.102h7.5c-.374 1.782-1.919 3.102-3.75 3.102Zm4.416-4.273H24.005c.288-2.65 2.503-4.717 5.185-4.717 2.354 0 4.331 1.552 4.986 3.725a5.4 5.4 0 0 1 .2.991h-.697Zm5.619-12.14a.953.953 0 0 1-.951.952h-7.734V19.14h8.685v2.073Zm0-3.246h-8.685v-1.246h8.685v1.246Zm0-2.418h-8.685v-1.192c0-.525.426-.952.95-.952h6.784c.524 0 .95.427.95.952v1.192Z" fill="#09A66D"/></svg>