<svg width="29" height="41" fill="none" xmlns="http://www.w3.org/2000/svg"><path d="M9.156 28.715h10.39a.586.586 0 0 0 0-1.172H9.157a.586.586 0 1 0 0 1.172Zm1.836-13.442h6.956c.53 0 .99-.341 1.145-.849l1.46-4.81a1.185 1.185 0 0 0-.184-1.06 1.185 1.185 0 0 0-.96-.484h-.52l-1.063-2.655a1.592 1.592 0 0 0-1.485-1.006h-3.742c-.658 0-1.241.395-1.486 1.006L10.051 8.07h-.52c-.382 0-.732.176-.96.484a1.185 1.185 0 0 0-.184 1.06l1.46 4.81a1.19 1.19 0 0 0 1.145.849Zm-1.48-6.021c.018-.024 3.187-.002 3.21-.01a.586.586 0 1 0 0-1.172h-1.409l.888-2.22a.426.426 0 0 1 .398-.27h3.742c.176 0 .332.107.397.27l.888 2.22h-2.17a.586.586 0 0 0 0 1.172c.02 0 3.957-.01 3.972.01.017.023-1.457 4.807-1.457 4.832 0 .052-7 .01-7.002 0-.008-.025-1.474-4.809-1.457-4.832ZM9.156 34.56a.586.586 0 1 0 0 1.172h10.39a.586.586 0 0 0 0-1.172H9.157Zm15.664-1.757a.586.586 0 0 0-.586-.586H9.156a.586.586 0 0 0 0 1.172h15.078a.586.586 0 0 0 .586-.586Zm2.93-6.26a.586.586 0 0 0 .586-.587V3.823a2.933 2.933 0 0 0-2.93-2.93H3.534a2.933 2.933 0 0 0-2.93 2.93v34.14a2.933 2.933 0 0 0 2.93 2.93h21.872a2.933 2.933 0 0 0 2.93-2.93v-9.272a.586.586 0 1 0-1.172 0v9.273a1.76 1.76 0 0 1-1.758 1.758H3.534a1.76 1.76 0 0 1-1.758-1.758V3.824c0-.97.788-1.759 1.758-1.759h21.872c.97 0 1.758.789 1.758 1.758v22.133c0 .324.262.586.586.586ZM6.84 29.163c-.29.004-.592.007-.87.008.198-.267.447-.612.758-1.056.272-.39.465-.742.515-1.108.009-.06.024-.168.024-.225 0-.873-.71-1.584-1.583-1.584-.755 0-1.408.538-1.554 1.278a.586.586 0 1 0 1.15.225.412.412 0 0 1 .814.052c.015.21-.092.355-.326.69-.616.88-.983 1.36-1.18 1.619-.345.45-.51 1.038.087 1.237.077.026 1.624.043 2.179.036a.586.586 0 1 0-.015-1.172ZM24.233 25.2H9.156a.586.586 0 0 0 0 1.172h15.078a.586.586 0 1 0 0-1.172ZM5.776 32.217c-.755 0-1.408.537-1.554 1.277a.586.586 0 1 0 1.15.225.412.412 0 1 1 .404.492.586.586 0 0 0 0 1.172.412.412 0 1 1-.411.412.586.586 0 0 0-1.172 0c0 .86.714 1.583 1.583 1.583.873 0 1.583-.71 1.583-1.583 0-.378-.133-.725-.355-.998.222-.272.355-.62.355-.997 0-.873-.71-1.583-1.583-1.583Zm0-8.935a.586.586 0 0 0 .586-.586V18.8a.586.586 0 0 0-.586-.586h-.833a.586.586 0 0 0 0 1.172h.247v3.311c0 .324.262.586.586.586Zm3.38-1.554h10.39a.586.586 0 1 0 0-1.171H9.157a.586.586 0 1 0 0 1.171Zm15.078-3.515H9.156a.586.586 0 0 0 0 1.172h15.078a.586.586 0 0 0 0-1.172Z" fill="#09A66D"/></svg>