<svg width="32" height="32" fill="none" xmlns="http://www.w3.org/2000/svg"><g clip-path="url(#a)"><path d="M31.954 12.329a.937.937 0 0 0-.757-.639l-9.92-1.441-4.436-8.99a.937.937 0 0 0-1.682 0l-4.436 8.99-9.92 1.441a.937.937 0 0 0-.52 1.6l7.178 6.997-1.694 9.88a.938.938 0 0 0 1.36.988L16 26.49l8.873 4.665a.937.937 0 0 0 1.36-.988l-1.695-9.88 7.179-6.997a.937.937 0 0 0 .237-.961Z" fill="#FED42D"/><path d="M31.954 12.329a.937.937 0 0 0-.757-.639l-9.92-1.441-4.436-8.99A.937.937 0 0 0 16 .738V26.49l8.872 4.665a.935.935 0 0 0 .987-.071.938.938 0 0 0 .373-.917l-1.695-9.88 7.179-6.997a.937.937 0 0 0 .237-.961Z" fill="#FCBF29"/></g><defs><clipPath id="a"><path fill="#fff" d="M0 0h32v32H0z"/></clipPath></defs></svg>