<svg width="25" height="25" fill="none" xmlns="http://www.w3.org/2000/svg"><g clip-path="url(#a)"><path d="M24.1 5.348c-.892.392-1.843.651-2.834.777a4.893 4.893 0 0 0 2.164-2.72 9.833 9.833 0 0 1-3.12 1.192A4.919 4.919 0 0 0 11.8 7.962c0 .39.033.764.114 1.121-4.09-.2-7.71-2.16-10.141-5.146a4.954 4.954 0 0 0-.674 2.487c0 1.704.878 3.214 2.186 4.089a4.858 4.858 0 0 1-2.223-.606v.054a4.943 4.943 0 0 0 3.942 4.834c-.4.11-.837.162-1.29.162a4.35 4.35 0 0 1-.932-.084c.638 1.949 2.447 3.381 4.598 3.428a9.886 9.886 0 0 1-6.1 2.098c-.404 0-.791-.018-1.178-.067a13.852 13.852 0 0 0 7.548 2.208c9.054 0 14.004-7.5 14.004-14.001 0-.218-.008-.428-.018-.636A9.816 9.816 0 0 0 24.1 5.348Z" fill="#222"/></g><defs><clipPath id="a"><path fill="#fff" transform="translate(.1 .79)" d="M0 0h24v24H0z"/></clipPath></defs></svg>