<svg width="32" height="32" fill="none" xmlns="http://www.w3.org/2000/svg"><g clip-path="url(#a)" fill="#09A66D"><path d="M16.002 0c-4.571 0-8.308 3.737-8.308 8.308 0 4.572 3.737 8.309 8.308 8.309 4.572 0 8.309-3.737 8.309-8.309C24.31 3.737 20.574 0 16.002 0ZM30.26 23.256a7.745 7.745 0 0 0-.834-1.523c-1.669-2.468-4.245-4.1-7.147-4.5-.363-.036-.762.037-1.052.255a8.74 8.74 0 0 1-5.225 1.705 8.74 8.74 0 0 1-5.224-1.706 1.361 1.361 0 0 0-1.052-.253 10.252 10.252 0 0 0-7.148 4.498 8.928 8.928 0 0 0-.834 1.524c-.109.218-.073.472.036.69.29.508.653 1.016.98 1.45.508.69 1.052 1.307 1.669 1.887.507.508 1.088.98 1.669 1.452A16.437 16.437 0 0 0 15.966 32c3.556 0 7.002-1.125 9.868-3.265a15.96 15.96 0 0 0 1.67-1.451c.58-.581 1.16-1.198 1.668-1.887.363-.472.69-.943.98-1.451.181-.218.217-.472.109-.69Z"/></g><defs><clipPath id="a"><path fill="#fff" d="M0 0h32v32H0z"/></clipPath></defs></svg>